<mxfile host="app.diagrams.net" agent="Mozilla/5.0 (Windows NT 10.0; Win64; x64) AppleWebKit/537.36 (KHTML, like Gecko) Chrome/141.0.0.0 Safari/537.36 Edg/141.0.0.0" version="28.2.8">
  <diagram name="Page-1" id="MzJ_nT4LreOSaZLbP-9O">
    <mxGraphModel dx="1130" dy="734" grid="1" gridSize="10" guides="1" tooltips="1" connect="1" arrows="1" fold="1" page="1" pageScale="1" pageWidth="850" pageHeight="1100" math="0" shadow="0">
      <root>
        <mxCell id="0" />
        <mxCell id="1" parent="0" />
        <mxCell id="xtXBXruxO_-biEpYpfWu-31" style="edgeStyle=orthogonalEdgeStyle;rounded=0;orthogonalLoop=1;jettySize=auto;html=1;exitX=0;exitY=0.5;exitDx=0;exitDy=0;exitPerimeter=0;entryX=0.5;entryY=0;entryDx=0;entryDy=0;" parent="1" source="xtXBXruxO_-biEpYpfWu-22" target="xtXBXruxO_-biEpYpfWu-29" edge="1">
          <mxGeometry relative="1" as="geometry" />
        </mxCell>
        <mxCell id="xtXBXruxO_-biEpYpfWu-22" value="start" style="strokeWidth=2;html=1;shape=mxgraph.flowchart.start_2;whiteSpace=wrap;direction=north;fillColor=#CCFFCC;" parent="1" vertex="1">
          <mxGeometry x="380" y="138" width="60" height="60" as="geometry" />
        </mxCell>
        <mxCell id="xtXBXruxO_-biEpYpfWu-37" style="edgeStyle=orthogonalEdgeStyle;rounded=0;orthogonalLoop=1;jettySize=auto;html=1;exitX=0;exitY=0.5;exitDx=0;exitDy=0;entryX=0.5;entryY=0;entryDx=0;entryDy=0;" parent="1" source="xtXBXruxO_-biEpYpfWu-185" target="xtXBXruxO_-biEpYpfWu-58" edge="1">
          <mxGeometry relative="1" as="geometry">
            <mxPoint x="361" y="543" as="sourcePoint" />
            <mxPoint x="250" y="678" as="targetPoint" />
          </mxGeometry>
        </mxCell>
        <mxCell id="xtXBXruxO_-biEpYpfWu-41" value="True" style="edgeLabel;html=1;align=center;verticalAlign=middle;resizable=0;points=[];" parent="xtXBXruxO_-biEpYpfWu-37" vertex="1" connectable="0">
          <mxGeometry x="-0.1747" y="1" relative="1" as="geometry">
            <mxPoint x="6" y="-1" as="offset" />
          </mxGeometry>
        </mxCell>
        <mxCell id="xtXBXruxO_-biEpYpfWu-29" value="&lt;span style=&quot;&quot;&gt;- constants&lt;/span&gt;&lt;div&gt;&lt;span style=&quot;background-color: transparent; color: light-dark(rgb(0, 0, 0), rgb(255, 255, 255));&quot;&gt;&amp;nbsp;- databases&lt;/span&gt;&lt;/div&gt;&lt;div&gt;&lt;span style=&quot;background-color: transparent; color: light-dark(rgb(0, 0, 0), rgb(255, 255, 255));&quot;&gt;- analyzers&lt;/span&gt;&lt;/div&gt;&lt;div&gt;&lt;span style=&quot;background-color: transparent; color: light-dark(rgb(0, 0, 0), rgb(255, 255, 255));&quot;&gt;&amp;nbsp;- searchers&lt;/span&gt;&lt;/div&gt;" style="shape=parallelogram;html=1;strokeWidth=2;perimeter=parallelogramPerimeter;whiteSpace=wrap;rounded=1;arcSize=12;size=0.23;align=center;" parent="1" vertex="1">
          <mxGeometry x="349.75" y="228" width="120" height="70" as="geometry" />
        </mxCell>
        <mxCell id="xtXBXruxO_-biEpYpfWu-39" style="edgeStyle=orthogonalEdgeStyle;rounded=0;orthogonalLoop=1;jettySize=auto;html=1;exitX=1;exitY=0.5;exitDx=0;exitDy=0;entryX=0.5;entryY=0;entryDx=0;entryDy=0;" parent="1" source="xtXBXruxO_-biEpYpfWu-185" target="xtXBXruxO_-biEpYpfWu-186" edge="1">
          <mxGeometry relative="1" as="geometry">
            <mxPoint x="458.5" y="543" as="sourcePoint" />
            <mxPoint x="610" y="608" as="targetPoint" />
          </mxGeometry>
        </mxCell>
        <mxCell id="xtXBXruxO_-biEpYpfWu-43" value="False" style="edgeLabel;html=1;align=center;verticalAlign=middle;resizable=0;points=[];" parent="xtXBXruxO_-biEpYpfWu-39" vertex="1" connectable="0">
          <mxGeometry x="-0.5037" relative="1" as="geometry">
            <mxPoint x="23" as="offset" />
          </mxGeometry>
        </mxCell>
        <mxCell id="xtXBXruxO_-biEpYpfWu-58" value="import via importer" style="rounded=1;whiteSpace=wrap;html=1;" parent="1" vertex="1">
          <mxGeometry x="190" y="591" width="120" height="60" as="geometry" />
        </mxCell>
        <mxCell id="xtXBXruxO_-biEpYpfWu-59" value="&lt;div&gt;&lt;span style=&quot;background-color: transparent; color: light-dark(rgb(0, 0, 0), rgb(255, 255, 255));&quot;&gt;read JSON&lt;/span&gt;&lt;/div&gt;" style="rounded=1;whiteSpace=wrap;html=1;" parent="1" vertex="1">
          <mxGeometry x="410" y="686" width="120" height="60" as="geometry" />
        </mxCell>
        <mxCell id="xtXBXruxO_-biEpYpfWu-191" style="edgeStyle=orthogonalEdgeStyle;rounded=0;orthogonalLoop=1;jettySize=auto;html=1;exitX=0.5;exitY=1;exitDx=0;exitDy=0;entryX=0.5;entryY=0;entryDx=0;entryDy=0;" parent="1" source="xtXBXruxO_-biEpYpfWu-63" target="xtXBXruxO_-biEpYpfWu-83" edge="1">
          <mxGeometry relative="1" as="geometry">
            <Array as="points">
              <mxPoint x="350" y="1050" />
              <mxPoint x="470" y="1050" />
            </Array>
          </mxGeometry>
        </mxCell>
        <mxCell id="xtXBXruxO_-biEpYpfWu-63" value="import from JSON" style="rounded=1;whiteSpace=wrap;html=1;" parent="1" vertex="1">
          <mxGeometry x="290" y="885" width="120" height="60" as="geometry" />
        </mxCell>
        <mxCell id="xtXBXruxO_-biEpYpfWu-66" style="edgeStyle=orthogonalEdgeStyle;rounded=0;orthogonalLoop=1;jettySize=auto;html=1;exitX=0;exitY=0.5;exitDx=0;exitDy=0;entryX=0.5;entryY=0;entryDx=0;entryDy=0;" parent="1" source="xtXBXruxO_-biEpYpfWu-187" target="xtXBXruxO_-biEpYpfWu-63" edge="1">
          <mxGeometry relative="1" as="geometry">
            <mxPoint x="420" y="835" as="sourcePoint" />
          </mxGeometry>
        </mxCell>
        <mxCell id="xtXBXruxO_-biEpYpfWu-68" value="False" style="edgeLabel;html=1;align=center;verticalAlign=middle;resizable=0;points=[];" parent="xtXBXruxO_-biEpYpfWu-66" vertex="1" connectable="0">
          <mxGeometry x="-0.3216" y="2" relative="1" as="geometry">
            <mxPoint as="offset" />
          </mxGeometry>
        </mxCell>
        <mxCell id="xtXBXruxO_-biEpYpfWu-70" style="edgeStyle=orthogonalEdgeStyle;rounded=0;orthogonalLoop=1;jettySize=auto;html=1;exitX=1;exitY=0.5;exitDx=0;exitDy=0;entryX=0.5;entryY=0;entryDx=0;entryDy=0;" parent="1" source="xtXBXruxO_-biEpYpfWu-187" target="xtXBXruxO_-biEpYpfWu-69" edge="1">
          <mxGeometry relative="1" as="geometry">
            <mxPoint x="520" y="835" as="sourcePoint" />
          </mxGeometry>
        </mxCell>
        <mxCell id="xtXBXruxO_-biEpYpfWu-71" value="True" style="edgeLabel;html=1;align=center;verticalAlign=middle;resizable=0;points=[];" parent="xtXBXruxO_-biEpYpfWu-70" vertex="1" connectable="0">
          <mxGeometry x="-0.2429" y="1" relative="1" as="geometry">
            <mxPoint x="-13" y="1" as="offset" />
          </mxGeometry>
        </mxCell>
        <mxCell id="xtXBXruxO_-biEpYpfWu-65" style="edgeStyle=orthogonalEdgeStyle;rounded=0;orthogonalLoop=1;jettySize=auto;html=1;exitX=0.5;exitY=1;exitDx=0;exitDy=0;entryX=0.5;entryY=0;entryDx=0;entryDy=0;" parent="1" source="xtXBXruxO_-biEpYpfWu-59" target="xtXBXruxO_-biEpYpfWu-187" edge="1">
          <mxGeometry relative="1" as="geometry">
            <mxPoint x="470" y="818" as="targetPoint" />
          </mxGeometry>
        </mxCell>
        <mxCell id="xtXBXruxO_-biEpYpfWu-82" style="edgeStyle=orthogonalEdgeStyle;rounded=0;orthogonalLoop=1;jettySize=auto;html=1;exitX=1;exitY=0.5;exitDx=0;exitDy=0;entryX=0.5;entryY=0;entryDx=0;entryDy=0;" parent="1" source="xtXBXruxO_-biEpYpfWu-69" target="xtXBXruxO_-biEpYpfWu-76" edge="1">
          <mxGeometry relative="1" as="geometry" />
        </mxCell>
        <mxCell id="xtXBXruxO_-biEpYpfWu-69" value="write to DB" style="rounded=1;whiteSpace=wrap;html=1;" parent="1" vertex="1">
          <mxGeometry x="549" y="885" width="120" height="60" as="geometry" />
        </mxCell>
        <mxCell id="xtXBXruxO_-biEpYpfWu-73" style="edgeStyle=orthogonalEdgeStyle;rounded=0;orthogonalLoop=1;jettySize=auto;html=1;exitX=0;exitY=0.5;exitDx=0;exitDy=0;entryX=0.5;entryY=0;entryDx=0;entryDy=0;" parent="1" source="xtXBXruxO_-biEpYpfWu-186" target="xtXBXruxO_-biEpYpfWu-59" edge="1">
          <mxGeometry relative="1" as="geometry">
            <mxPoint x="560" y="658" as="sourcePoint" />
          </mxGeometry>
        </mxCell>
        <mxCell id="xtXBXruxO_-biEpYpfWu-75" value="False" style="edgeLabel;html=1;align=center;verticalAlign=middle;resizable=0;points=[];" parent="xtXBXruxO_-biEpYpfWu-73" vertex="1" connectable="0">
          <mxGeometry x="-0.4492" y="-3" relative="1" as="geometry">
            <mxPoint x="-4" y="3" as="offset" />
          </mxGeometry>
        </mxCell>
        <mxCell id="xtXBXruxO_-biEpYpfWu-80" style="edgeStyle=orthogonalEdgeStyle;rounded=0;orthogonalLoop=1;jettySize=auto;html=1;exitX=1;exitY=0.5;exitDx=0;exitDy=0;entryX=0.5;entryY=0;entryDx=0;entryDy=0;" parent="1" source="xtXBXruxO_-biEpYpfWu-186" target="xtXBXruxO_-biEpYpfWu-76" edge="1">
          <mxGeometry relative="1" as="geometry">
            <mxPoint x="660" y="658" as="sourcePoint" />
          </mxGeometry>
        </mxCell>
        <mxCell id="xtXBXruxO_-biEpYpfWu-189" value="True" style="edgeLabel;html=1;align=center;verticalAlign=middle;resizable=0;points=[];" parent="xtXBXruxO_-biEpYpfWu-80" vertex="1" connectable="0">
          <mxGeometry x="-0.8028" y="1" relative="1" as="geometry">
            <mxPoint as="offset" />
          </mxGeometry>
        </mxCell>
        <mxCell id="xtXBXruxO_-biEpYpfWu-190" style="edgeStyle=orthogonalEdgeStyle;rounded=0;orthogonalLoop=1;jettySize=auto;html=1;exitX=0.5;exitY=1;exitDx=0;exitDy=0;entryX=0.5;entryY=0;entryDx=0;entryDy=0;" parent="1" source="xtXBXruxO_-biEpYpfWu-76" target="xtXBXruxO_-biEpYpfWu-83" edge="1">
          <mxGeometry relative="1" as="geometry" />
        </mxCell>
        <mxCell id="xtXBXruxO_-biEpYpfWu-76" value="fetch from DB" style="rounded=1;whiteSpace=wrap;html=1;" parent="1" vertex="1">
          <mxGeometry x="691" y="970" width="120" height="60" as="geometry" />
        </mxCell>
        <mxCell id="xtXBXruxO_-biEpYpfWu-92" style="edgeStyle=orthogonalEdgeStyle;rounded=0;orthogonalLoop=1;jettySize=auto;html=1;exitX=1;exitY=0.5;exitDx=0;exitDy=0;entryX=0.5;entryY=0;entryDx=0;entryDy=0;" parent="1" source="xtXBXruxO_-biEpYpfWu-83" target="xtXBXruxO_-biEpYpfWu-91" edge="1">
          <mxGeometry relative="1" as="geometry" />
        </mxCell>
        <mxCell id="xtXBXruxO_-biEpYpfWu-93" value="True" style="edgeLabel;html=1;align=center;verticalAlign=middle;resizable=0;points=[];" parent="xtXBXruxO_-biEpYpfWu-92" vertex="1" connectable="0">
          <mxGeometry x="-0.1694" relative="1" as="geometry">
            <mxPoint x="-8" as="offset" />
          </mxGeometry>
        </mxCell>
        <mxCell id="xtXBXruxO_-biEpYpfWu-83" value="export" style="rhombus;whiteSpace=wrap;html=1;fillColor=#FFCCCC;" parent="1" vertex="1">
          <mxGeometry x="430" y="1070" width="80" height="80" as="geometry" />
        </mxCell>
        <mxCell id="xtXBXruxO_-biEpYpfWu-91" value="export to file" style="rounded=1;whiteSpace=wrap;html=1;" parent="1" vertex="1">
          <mxGeometry x="530" y="1139" width="120" height="60" as="geometry" />
        </mxCell>
        <mxCell id="xtXBXruxO_-biEpYpfWu-157" value="" style="edgeStyle=orthogonalEdgeStyle;rounded=0;orthogonalLoop=1;jettySize=auto;html=1;exitX=0.776;exitY=0.491;exitDx=0;exitDy=0;exitPerimeter=0;entryX=0;entryY=0.5;entryDx=0;entryDy=0;" parent="1" source="xtXBXruxO_-biEpYpfWu-95" target="xtXBXruxO_-biEpYpfWu-160" edge="1">
          <mxGeometry relative="1" as="geometry">
            <mxPoint x="458.5" y="1286.0344827586207" as="targetPoint" />
          </mxGeometry>
        </mxCell>
        <mxCell id="xtXBXruxO_-biEpYpfWu-95" value="join" style="strokeWidth=2;html=1;shape=mxgraph.flowchart.merge_or_storage;whiteSpace=wrap;fillColor=#FFF2CC;" parent="1" vertex="1">
          <mxGeometry x="310" y="1261" width="95" height="50" as="geometry" />
        </mxCell>
        <mxCell id="xtXBXruxO_-biEpYpfWu-97" style="edgeStyle=orthogonalEdgeStyle;rounded=0;orthogonalLoop=1;jettySize=auto;html=1;exitX=0;exitY=0.5;exitDx=0;exitDy=0;entryX=0.5;entryY=0;entryDx=0;entryDy=0;entryPerimeter=0;" parent="1" source="xtXBXruxO_-biEpYpfWu-83" target="xtXBXruxO_-biEpYpfWu-95" edge="1">
          <mxGeometry relative="1" as="geometry" />
        </mxCell>
        <mxCell id="xtXBXruxO_-biEpYpfWu-98" value="False" style="edgeLabel;html=1;align=center;verticalAlign=middle;resizable=0;points=[];" parent="xtXBXruxO_-biEpYpfWu-97" vertex="1" connectable="0">
          <mxGeometry x="-0.6379" relative="1" as="geometry">
            <mxPoint x="20" as="offset" />
          </mxGeometry>
        </mxCell>
        <mxCell id="xtXBXruxO_-biEpYpfWu-99" style="edgeStyle=orthogonalEdgeStyle;rounded=0;orthogonalLoop=1;jettySize=auto;html=1;exitX=0.5;exitY=1;exitDx=0;exitDy=0;entryX=0.5;entryY=0;entryDx=0;entryDy=0;entryPerimeter=0;" parent="1" source="xtXBXruxO_-biEpYpfWu-58" target="xtXBXruxO_-biEpYpfWu-95" edge="1">
          <mxGeometry relative="1" as="geometry">
            <Array as="points">
              <mxPoint x="250" y="1230" />
              <mxPoint x="358" y="1230" />
            </Array>
          </mxGeometry>
        </mxCell>
        <mxCell id="xtXBXruxO_-biEpYpfWu-107" value="" style="edgeStyle=orthogonalEdgeStyle;rounded=0;orthogonalLoop=1;jettySize=auto;html=1;entryX=0.5;entryY=0;entryDx=0;entryDy=0;" parent="1" source="xtXBXruxO_-biEpYpfWu-104" target="xtXBXruxO_-biEpYpfWu-185" edge="1">
          <mxGeometry relative="1" as="geometry">
            <mxPoint x="409.7692307692307" y="498" as="targetPoint" />
          </mxGeometry>
        </mxCell>
        <mxCell id="xtXBXruxO_-biEpYpfWu-104" value="for each DB" style="ellipse;shape=umlControl;whiteSpace=wrap;html=1;" parent="1" vertex="1">
          <mxGeometry x="369.75" y="348" width="80" height="90" as="geometry" />
        </mxCell>
        <mxCell id="xtXBXruxO_-biEpYpfWu-106" style="edgeStyle=orthogonalEdgeStyle;rounded=0;orthogonalLoop=1;jettySize=auto;html=1;exitX=0.5;exitY=1;exitDx=0;exitDy=0;entryX=0.507;entryY=0.131;entryDx=0;entryDy=0;entryPerimeter=0;" parent="1" source="xtXBXruxO_-biEpYpfWu-29" target="xtXBXruxO_-biEpYpfWu-104" edge="1">
          <mxGeometry relative="1" as="geometry" />
        </mxCell>
        <mxCell id="xtXBXruxO_-biEpYpfWu-112" value="" style="edgeStyle=orthogonalEdgeStyle;rounded=0;orthogonalLoop=1;jettySize=auto;html=1;" parent="1" source="xtXBXruxO_-biEpYpfWu-108" target="xtXBXruxO_-biEpYpfWu-111" edge="1">
          <mxGeometry relative="1" as="geometry" />
        </mxCell>
        <mxCell id="xtXBXruxO_-biEpYpfWu-108" value="for each analyzer" style="ellipse;shape=umlControl;whiteSpace=wrap;html=1;" parent="1" vertex="1">
          <mxGeometry x="317.5" y="1381" width="80" height="90" as="geometry" />
        </mxCell>
        <mxCell id="xtXBXruxO_-biEpYpfWu-109" style="edgeStyle=orthogonalEdgeStyle;rounded=0;orthogonalLoop=1;jettySize=auto;html=1;exitX=0.5;exitY=1;exitDx=0;exitDy=0;exitPerimeter=0;entryX=0.495;entryY=0.113;entryDx=0;entryDy=0;entryPerimeter=0;" parent="1" source="xtXBXruxO_-biEpYpfWu-95" target="xtXBXruxO_-biEpYpfWu-108" edge="1">
          <mxGeometry relative="1" as="geometry" />
        </mxCell>
        <mxCell id="xtXBXruxO_-biEpYpfWu-110" value="import via importer" style="rounded=1;whiteSpace=wrap;html=1;" parent="1" vertex="1">
          <mxGeometry x="140" y="1601" width="120" height="60" as="geometry" />
        </mxCell>
        <mxCell id="xtXBXruxO_-biEpYpfWu-113" style="edgeStyle=orthogonalEdgeStyle;rounded=0;orthogonalLoop=1;jettySize=auto;html=1;exitX=0;exitY=0.5;exitDx=0;exitDy=0;entryX=0.5;entryY=0;entryDx=0;entryDy=0;" parent="1" source="xtXBXruxO_-biEpYpfWu-111" target="xtXBXruxO_-biEpYpfWu-110" edge="1">
          <mxGeometry relative="1" as="geometry" />
        </mxCell>
        <mxCell id="xtXBXruxO_-biEpYpfWu-119" value="True" style="edgeLabel;html=1;align=center;verticalAlign=middle;resizable=0;points=[];" parent="xtXBXruxO_-biEpYpfWu-113" vertex="1" connectable="0">
          <mxGeometry x="-0.424" y="-1" relative="1" as="geometry">
            <mxPoint as="offset" />
          </mxGeometry>
        </mxCell>
        <mxCell id="xtXBXruxO_-biEpYpfWu-115" style="edgeStyle=orthogonalEdgeStyle;rounded=0;orthogonalLoop=1;jettySize=auto;html=1;exitX=1;exitY=0.5;exitDx=0;exitDy=0;entryX=0.5;entryY=0;entryDx=0;entryDy=0;" parent="1" source="xtXBXruxO_-biEpYpfWu-111" target="xtXBXruxO_-biEpYpfWu-114" edge="1">
          <mxGeometry relative="1" as="geometry" />
        </mxCell>
        <mxCell id="xtXBXruxO_-biEpYpfWu-120" value="False" style="edgeLabel;html=1;align=center;verticalAlign=middle;resizable=0;points=[];" parent="xtXBXruxO_-biEpYpfWu-115" vertex="1" connectable="0">
          <mxGeometry x="-0.3249" y="-1" relative="1" as="geometry">
            <mxPoint as="offset" />
          </mxGeometry>
        </mxCell>
        <mxCell id="xtXBXruxO_-biEpYpfWu-111" value="is importer" style="rhombus;whiteSpace=wrap;html=1;fillColor=#FFCCCC;" parent="1" vertex="1">
          <mxGeometry x="317.5" y="1511" width="80" height="80" as="geometry" />
        </mxCell>
        <mxCell id="xtXBXruxO_-biEpYpfWu-114" value="perform analysis for each (CMF, shift)" style="rounded=1;whiteSpace=wrap;html=1;" parent="1" vertex="1">
          <mxGeometry x="458.5" y="1601" width="120" height="60" as="geometry" />
        </mxCell>
        <mxCell id="xtXBXruxO_-biEpYpfWu-116" value="" style="verticalLabelPosition=bottom;verticalAlign=top;html=1;shape=mxgraph.flowchart.sort;" parent="1" vertex="1">
          <mxGeometry x="478.75" y="1701" width="80.25" height="80" as="geometry" />
        </mxCell>
        <mxCell id="xtXBXruxO_-biEpYpfWu-117" style="edgeStyle=orthogonalEdgeStyle;rounded=0;orthogonalLoop=1;jettySize=auto;html=1;exitX=0.5;exitY=1;exitDx=0;exitDy=0;entryX=0.5;entryY=0;entryDx=0;entryDy=0;entryPerimeter=0;" parent="1" source="xtXBXruxO_-biEpYpfWu-114" target="xtXBXruxO_-biEpYpfWu-116" edge="1">
          <mxGeometry relative="1" as="geometry" />
        </mxCell>
        <mxCell id="xtXBXruxO_-biEpYpfWu-138" style="edgeStyle=orthogonalEdgeStyle;rounded=0;orthogonalLoop=1;jettySize=auto;html=1;exitX=0.5;exitY=1;exitDx=0;exitDy=0;exitPerimeter=0;entryX=0.5;entryY=0;entryDx=0;entryDy=0;" parent="1" source="xtXBXruxO_-biEpYpfWu-121" target="xtXBXruxO_-biEpYpfWu-137" edge="1">
          <mxGeometry relative="1" as="geometry" />
        </mxCell>
        <mxCell id="xtXBXruxO_-biEpYpfWu-121" value="join" style="strokeWidth=2;html=1;shape=mxgraph.flowchart.merge_or_storage;whiteSpace=wrap;fillColor=#FFF2CC;" parent="1" vertex="1">
          <mxGeometry x="310" y="1841" width="95" height="50" as="geometry" />
        </mxCell>
        <mxCell id="xtXBXruxO_-biEpYpfWu-122" style="edgeStyle=orthogonalEdgeStyle;rounded=0;orthogonalLoop=1;jettySize=auto;html=1;exitX=0.5;exitY=1;exitDx=0;exitDy=0;entryX=0.5;entryY=0;entryDx=0;entryDy=0;entryPerimeter=0;" parent="1" source="xtXBXruxO_-biEpYpfWu-110" target="xtXBXruxO_-biEpYpfWu-121" edge="1">
          <mxGeometry relative="1" as="geometry">
            <Array as="points">
              <mxPoint x="200" y="1811" />
              <mxPoint x="358" y="1811" />
            </Array>
          </mxGeometry>
        </mxCell>
        <mxCell id="xtXBXruxO_-biEpYpfWu-123" style="edgeStyle=orthogonalEdgeStyle;rounded=0;orthogonalLoop=1;jettySize=auto;html=1;exitX=0.5;exitY=1;exitDx=0;exitDy=0;exitPerimeter=0;entryX=0.5;entryY=0;entryDx=0;entryDy=0;entryPerimeter=0;" parent="1" source="xtXBXruxO_-biEpYpfWu-116" target="xtXBXruxO_-biEpYpfWu-121" edge="1">
          <mxGeometry relative="1" as="geometry" />
        </mxCell>
        <mxCell id="xtXBXruxO_-biEpYpfWu-124" value="" style="strokeWidth=2;html=1;shape=mxgraph.flowchart.annotation_2;align=left;labelPosition=right;pointerEvents=1;" parent="1" vertex="1">
          <mxGeometry x="578.5" y="1351" width="50" height="560" as="geometry" />
        </mxCell>
        <mxCell id="xtXBXruxO_-biEpYpfWu-128" style="edgeStyle=orthogonalEdgeStyle;rounded=0;orthogonalLoop=1;jettySize=auto;html=1;exitX=0.5;exitY=1;exitDx=0;exitDy=0;entryX=0.5;entryY=0;entryDx=0;entryDy=0;" parent="1" source="xtXBXruxO_-biEpYpfWu-126" target="xtXBXruxO_-biEpYpfWu-127" edge="1">
          <mxGeometry relative="1" as="geometry" />
        </mxCell>
        <mxCell id="xtXBXruxO_-biEpYpfWu-159" value="" style="edgeStyle=orthogonalEdgeStyle;rounded=0;orthogonalLoop=1;jettySize=auto;html=1;" parent="1" source="xtXBXruxO_-biEpYpfWu-126" target="xtXBXruxO_-biEpYpfWu-158" edge="1">
          <mxGeometry relative="1" as="geometry" />
        </mxCell>
        <mxCell id="xtXBXruxO_-biEpYpfWu-126" value="extract hyperplane&amp;nbsp; groups" style="rounded=1;whiteSpace=wrap;html=1;" parent="1" vertex="1">
          <mxGeometry x="648.5" y="1351" width="110" height="60" as="geometry" />
        </mxCell>
        <mxCell id="xtXBXruxO_-biEpYpfWu-130" style="edgeStyle=orthogonalEdgeStyle;rounded=0;orthogonalLoop=1;jettySize=auto;html=1;exitX=0.5;exitY=1;exitDx=0;exitDy=0;entryX=0.5;entryY=0;entryDx=0;entryDy=0;" parent="1" source="xtXBXruxO_-biEpYpfWu-127" target="xtXBXruxO_-biEpYpfWu-129" edge="1">
          <mxGeometry relative="1" as="geometry" />
        </mxCell>
        <mxCell id="xtXBXruxO_-biEpYpfWu-164" value="" style="edgeStyle=orthogonalEdgeStyle;rounded=0;orthogonalLoop=1;jettySize=auto;html=1;" parent="1" source="xtXBXruxO_-biEpYpfWu-127" target="xtXBXruxO_-biEpYpfWu-163" edge="1">
          <mxGeometry relative="1" as="geometry" />
        </mxCell>
        <mxCell id="xtXBXruxO_-biEpYpfWu-127" value="generate start points in universal shards" style="rounded=1;whiteSpace=wrap;html=1;" parent="1" vertex="1">
          <mxGeometry x="638.5" y="1451" width="130" height="60" as="geometry" />
        </mxCell>
        <mxCell id="xtXBXruxO_-biEpYpfWu-132" style="edgeStyle=orthogonalEdgeStyle;rounded=0;orthogonalLoop=1;jettySize=auto;html=1;exitX=0.5;exitY=1;exitDx=0;exitDy=0;entryX=0.5;entryY=0;entryDx=0;entryDy=0;" parent="1" source="xtXBXruxO_-biEpYpfWu-129" target="xtXBXruxO_-biEpYpfWu-131" edge="1">
          <mxGeometry relative="1" as="geometry" />
        </mxCell>
        <mxCell id="xtXBXruxO_-biEpYpfWu-129" value="generate directions from hypersphere" style="rounded=1;whiteSpace=wrap;html=1;" parent="1" vertex="1">
          <mxGeometry x="638.5" y="1551" width="130" height="60" as="geometry" />
        </mxCell>
        <mxCell id="xtXBXruxO_-biEpYpfWu-134" style="edgeStyle=orthogonalEdgeStyle;rounded=0;orthogonalLoop=1;jettySize=auto;html=1;exitX=0.5;exitY=1;exitDx=0;exitDy=0;entryX=0.5;entryY=0;entryDx=0;entryDy=0;" parent="1" source="xtXBXruxO_-biEpYpfWu-131" target="xtXBXruxO_-biEpYpfWu-133" edge="1">
          <mxGeometry relative="1" as="geometry" />
        </mxCell>
        <mxCell id="xtXBXruxO_-biEpYpfWu-168" value="" style="edgeStyle=orthogonalEdgeStyle;rounded=0;orthogonalLoop=1;jettySize=auto;html=1;" parent="1" source="xtXBXruxO_-biEpYpfWu-131" target="xtXBXruxO_-biEpYpfWu-167" edge="1">
          <mxGeometry relative="1" as="geometry" />
        </mxCell>
        <mxCell id="xtXBXruxO_-biEpYpfWu-131" value="sort direction into HP groups" style="rounded=1;whiteSpace=wrap;html=1;" parent="1" vertex="1">
          <mxGeometry x="638.5" y="1651" width="130" height="60" as="geometry" />
        </mxCell>
        <mxCell id="xtXBXruxO_-biEpYpfWu-136" style="edgeStyle=orthogonalEdgeStyle;rounded=0;orthogonalLoop=1;jettySize=auto;html=1;exitX=0.5;exitY=1;exitDx=0;exitDy=0;entryX=0.5;entryY=0;entryDx=0;entryDy=0;" parent="1" source="xtXBXruxO_-biEpYpfWu-133" target="xtXBXruxO_-biEpYpfWu-135" edge="1">
          <mxGeometry relative="1" as="geometry" />
        </mxCell>
        <mxCell id="xtXBXruxO_-biEpYpfWu-171" value="" style="edgeStyle=orthogonalEdgeStyle;rounded=0;orthogonalLoop=1;jettySize=auto;html=1;" parent="1" source="xtXBXruxO_-biEpYpfWu-133" target="xtXBXruxO_-biEpYpfWu-170" edge="1">
          <mxGeometry relative="1" as="geometry" />
        </mxCell>
        <mxCell id="xtXBXruxO_-biEpYpfWu-172" value="write" style="edgeLabel;html=1;align=center;verticalAlign=middle;resizable=0;points=[];" parent="xtXBXruxO_-biEpYpfWu-171" vertex="1" connectable="0">
          <mxGeometry x="0.0508" relative="1" as="geometry">
            <mxPoint x="-3" as="offset" />
          </mxGeometry>
        </mxCell>
        <mxCell id="xtXBXruxO_-biEpYpfWu-133" value="match direction to universal start point within the HP group subspaces" style="rounded=1;whiteSpace=wrap;html=1;" parent="1" vertex="1">
          <mxGeometry x="629.75" y="1751" width="147.25" height="60" as="geometry" />
        </mxCell>
        <mxCell id="xtXBXruxO_-biEpYpfWu-153" value="" style="edgeStyle=orthogonalEdgeStyle;rounded=0;orthogonalLoop=1;jettySize=auto;html=1;" parent="1" source="xtXBXruxO_-biEpYpfWu-135" target="xtXBXruxO_-biEpYpfWu-152" edge="1">
          <mxGeometry relative="1" as="geometry" />
        </mxCell>
        <mxCell id="xtXBXruxO_-biEpYpfWu-155" value="write" style="edgeLabel;html=1;align=center;verticalAlign=middle;resizable=0;points=[];" parent="xtXBXruxO_-biEpYpfWu-153" vertex="1" connectable="0">
          <mxGeometry x="0.1709" y="-1" relative="1" as="geometry">
            <mxPoint x="-16" y="-1" as="offset" />
          </mxGeometry>
        </mxCell>
        <mxCell id="xtXBXruxO_-biEpYpfWu-135" value="perform simple search" style="rounded=1;whiteSpace=wrap;html=1;" parent="1" vertex="1">
          <mxGeometry x="638.5" y="1851" width="130" height="60" as="geometry" />
        </mxCell>
        <mxCell id="xtXBXruxO_-biEpYpfWu-137" value="apply search" style="rounded=1;whiteSpace=wrap;html=1;" parent="1" vertex="1">
          <mxGeometry x="297.5" y="1931" width="120" height="60" as="geometry" />
        </mxCell>
        <mxCell id="xtXBXruxO_-biEpYpfWu-139" value="" style="endArrow=none;html=1;rounded=0;" parent="1" edge="1">
          <mxGeometry width="50" height="50" relative="1" as="geometry">
            <mxPoint x="40" y="2031" as="sourcePoint" />
            <mxPoint x="800" y="2031" as="targetPoint" />
          </mxGeometry>
        </mxCell>
        <mxCell id="xtXBXruxO_-biEpYpfWu-182" value="" style="edgeStyle=orthogonalEdgeStyle;rounded=0;orthogonalLoop=1;jettySize=auto;html=1;" parent="1" source="xtXBXruxO_-biEpYpfWu-140" target="xtXBXruxO_-biEpYpfWu-180" edge="1">
          <mxGeometry relative="1" as="geometry" />
        </mxCell>
        <mxCell id="xtXBXruxO_-biEpYpfWu-140" value="read results" style="rounded=1;whiteSpace=wrap;html=1;" parent="1" vertex="1">
          <mxGeometry x="297.5" y="2061" width="120" height="60" as="geometry" />
        </mxCell>
        <mxCell id="xtXBXruxO_-biEpYpfWu-150" value="" style="endArrow=none;dashed=1;html=1;rounded=0;entryX=0.5;entryY=1;entryDx=0;entryDy=0;exitX=0.5;exitY=0;exitDx=0;exitDy=0;" parent="1" source="xtXBXruxO_-biEpYpfWu-140" target="xtXBXruxO_-biEpYpfWu-137" edge="1">
          <mxGeometry width="50" height="50" relative="1" as="geometry">
            <mxPoint x="355" y="2061" as="sourcePoint" />
            <mxPoint x="405" y="2011" as="targetPoint" />
          </mxGeometry>
        </mxCell>
        <mxCell id="xtXBXruxO_-biEpYpfWu-152" value="" style="strokeWidth=2;html=1;shape=mxgraph.flowchart.database;whiteSpace=wrap;fillColor=#D4E1F5;" parent="1" vertex="1">
          <mxGeometry x="841.75" y="1851" width="60" height="60" as="geometry" />
        </mxCell>
        <mxCell id="xtXBXruxO_-biEpYpfWu-158" value="export" style="shape=document;whiteSpace=wrap;html=1;boundedLbl=1;rounded=1;fillColor=#D4E1F5;" parent="1" vertex="1">
          <mxGeometry x="833.5" y="1356" width="76.5" height="50" as="geometry" />
        </mxCell>
        <mxCell id="xtXBXruxO_-biEpYpfWu-160" value="export" style="shape=document;whiteSpace=wrap;html=1;boundedLbl=1;rounded=1;fillColor=#D4E1F5;" parent="1" vertex="1">
          <mxGeometry x="458.5" y="1261" width="76.5" height="50" as="geometry" />
        </mxCell>
        <mxCell id="xtXBXruxO_-biEpYpfWu-163" value="export" style="shape=document;whiteSpace=wrap;html=1;boundedLbl=1;rounded=1;fillColor=#D4E1F5;" parent="1" vertex="1">
          <mxGeometry x="833.5" y="1456" width="76.5" height="50" as="geometry" />
        </mxCell>
        <mxCell id="xtXBXruxO_-biEpYpfWu-167" value="export" style="shape=document;whiteSpace=wrap;html=1;boundedLbl=1;rounded=1;fillColor=#D4E1F5;" parent="1" vertex="1">
          <mxGeometry x="833.5" y="1656" width="76.5" height="50" as="geometry" />
        </mxCell>
        <mxCell id="xtXBXruxO_-biEpYpfWu-170" value="" style="strokeWidth=2;html=1;shape=mxgraph.flowchart.database;whiteSpace=wrap;fillColor=#D4E1F5;" parent="1" vertex="1">
          <mxGeometry x="841.7530769230772" y="1751" width="60" height="60" as="geometry" />
        </mxCell>
        <mxCell id="xtXBXruxO_-biEpYpfWu-175" style="rounded=0;orthogonalLoop=1;jettySize=auto;html=1;exitX=1;exitY=0.25;exitDx=0;exitDy=0;entryX=0;entryY=0.85;entryDx=0;entryDy=0;entryPerimeter=0;" parent="1" source="xtXBXruxO_-biEpYpfWu-135" target="xtXBXruxO_-biEpYpfWu-170" edge="1">
          <mxGeometry relative="1" as="geometry" />
        </mxCell>
        <mxCell id="xtXBXruxO_-biEpYpfWu-176" value="read" style="edgeLabel;html=1;align=center;verticalAlign=middle;resizable=0;points=[];" parent="xtXBXruxO_-biEpYpfWu-175" vertex="1" connectable="0">
          <mxGeometry x="-0.05" y="2" relative="1" as="geometry">
            <mxPoint as="offset" />
          </mxGeometry>
        </mxCell>
        <mxCell id="xtXBXruxO_-biEpYpfWu-178" value="&lt;b&gt;&lt;font style=&quot;font-size: 14px;&quot;&gt;in run&lt;/font&gt;&lt;/b&gt;" style="text;html=1;whiteSpace=wrap;strokeColor=none;fillColor=none;align=center;verticalAlign=middle;rounded=0;" parent="1" vertex="1">
          <mxGeometry x="750" y="2005" width="60" height="30" as="geometry" />
        </mxCell>
        <mxCell id="xtXBXruxO_-biEpYpfWu-179" value="&lt;font style=&quot;font-size: 14px;&quot;&gt;&lt;b&gt;after run&lt;/b&gt;&lt;/font&gt;" style="text;html=1;whiteSpace=wrap;strokeColor=none;fillColor=none;align=center;verticalAlign=middle;rounded=0;" parent="1" vertex="1">
          <mxGeometry x="750" y="2029" width="60" height="30" as="geometry" />
        </mxCell>
        <mxCell id="xtXBXruxO_-biEpYpfWu-180" value="generate graphs +&amp;nbsp;&lt;span style=&quot;background-color: transparent; color: light-dark(rgb(0, 0, 0), rgb(255, 255, 255));&quot;&gt;summary&lt;/span&gt;" style="verticalLabelPosition=middle;verticalAlign=middle;html=1;shape=trapezoid;perimeter=trapezoidPerimeter;whiteSpace=wrap;size=0.23;arcSize=10;flipV=1;labelPosition=center;align=center;" parent="1" vertex="1">
          <mxGeometry x="286.25" y="2161" width="142.5" height="70" as="geometry" />
        </mxCell>
        <mxCell id="xtXBXruxO_-biEpYpfWu-185" value="is importer" style="rhombus;whiteSpace=wrap;html=1;fillColor=#FFCCCC;" parent="1" vertex="1">
          <mxGeometry x="364.75" y="508" width="90" height="85" as="geometry" />
        </mxCell>
        <mxCell id="xtXBXruxO_-biEpYpfWu-186" value="fetch from DB" style="rhombus;whiteSpace=wrap;html=1;fillColor=#FFCCCC;" parent="1" vertex="1">
          <mxGeometry x="559" y="608" width="100" height="100" as="geometry" />
        </mxCell>
        <mxCell id="xtXBXruxO_-biEpYpfWu-187" value="write to DB" style="rhombus;whiteSpace=wrap;html=1;fillColor=#FFCCCC;" parent="1" vertex="1">
          <mxGeometry x="420" y="785" width="100" height="100" as="geometry" />
        </mxCell>
        <mxCell id="xtXBXruxO_-biEpYpfWu-193" style="edgeStyle=orthogonalEdgeStyle;rounded=0;orthogonalLoop=1;jettySize=auto;html=1;exitX=0.5;exitY=1;exitDx=0;exitDy=0;entryX=0.5;entryY=0;entryDx=0;entryDy=0;entryPerimeter=0;" parent="1" source="xtXBXruxO_-biEpYpfWu-91" target="xtXBXruxO_-biEpYpfWu-95" edge="1">
          <mxGeometry relative="1" as="geometry" />
        </mxCell>
      </root>
    </mxGraphModel>
  </diagram>
</mxfile>
